# xmcd CD database file
#
# Track frame offsets:
#	150
#	11275
#	24250
#	40325
#	52112
#	66925
#	79675
#	94225
#	112187
#	125712
#	139625
#	154525
#	168037
#	183925
#	200375
#	215162
#	232125
#	246012
#	260437
#	275500
#
# Disc length: 3892 seconds
#
# Revision: 0
# Processed by: cddbd v1.5.1PL0 Copyright (c) Steve Scherf et al.
# Submitted via: CDex 1.51
#
DISCID=1a0f3214
DTITLE=ザ・タイガース - 全曲集
DYEAR=1994
DGENRE=JPop
TTITLE0=僕のマリー
TTITLE1=シーサイド・バウンド
TTITLE2=星のプリンス
TTITLE3=モナリザの微笑
TTITLE4=君だけに愛を
TTITLE5=落葉の物語
TTITLE6=銀河のロマンス
TTITLE7=花の首飾り
TTITLE8=シー・シー・シー
TTITLE9=白夜の騎士
TTITLE10=光ある世界
TTITLE11=忘れかけた子守唄
TTITLE12=廃墟の鳩
TTITLE13=青い鳥
TTITLE14=美しき愛の掟
TTITLE15=嘆き
TTITLE16=スマイル・フォー・ミー
TTITLE17=君を許す
TTITLE18=都会
TTITLE19=誓いの明日
EXTD=YEAR: 1994.12.01
EXTT0=
EXTT1=
EXTT2=
EXTT3=
EXTT4=
EXTT5=
EXTT6=
EXTT7=
EXTT8=
EXTT9=
EXTT10=
EXTT11=
EXTT12=
EXTT13=
EXTT14=
EXTT15=
EXTT16=
EXTT17=
EXTT18=
EXTT19=
PLAYORDER=
